name ./resultDataOpenSim/trcMotMarkerGrf/sub10/grf-02-06.mot
datacolumns 19
datarows 25
range 0.54400000 0.64000000
endheader

                time	     ground_force_vx	     ground_force_vy	     ground_force_vz	     ground_force_px	     ground_force_py	     ground_force_pz	   l_ground_force_vx	   l_ground_force_vy	   l_ground_force_vz	   l_ground_force_px	   l_ground_force_py	   l_ground_force_pz	     ground_torque_x	     ground_torque_y	     ground_torque_z	   l_ground_torque_x	   l_ground_torque_y	   l_ground_torque_z	
          0.54400000	         22.89743368	        461.25896365	        -15.03982225	         -0.81207255	          0.00000000	          0.02463499	          0.00000000	          0.00000000	          0.00000000	          0.00000000	          0.00000000	          0.00000000	          0.00000000	          1.96314219	          0.00000000	          0.00000000	          0.00000000	          0.00000000	
          0.54800000	         24.61959216	        462.04994956	        -15.89345331	         -0.81115636	          0.00000000	          0.02486707	          0.00000000	          0.00000000	          0.00000000	          0.00000000	          0.00000000	          0.00000000	          0.00000000	          1.95335552	          0.00000000	          0.00000000	          0.00000000	          0.00000000	
          0.55200000	         26.76196949	        463.26438599	        -16.51262664	         -0.81021913	          0.00000000	          0.02510866	          0.00000000	          0.00000000	          0.00000000	          0.00000000	          0.00000000	          0.00000000	          0.00000000	          1.95639018	          0.00000000	          0.00000000	          0.00000000	          0.00000000	
          0.55600000	         29.14746967	        464.94314702	        -16.81618815	         -0.80923238	          0.00000000	          0.02534339	          0.00000000	          0.00000000	          0.00000000	          0.00000000	          0.00000000	          0.00000000	          0.00000000	          1.97854548	          0.00000000	          0.00000000	          0.00000000	          0.00000000	
          0.56000000	         31.56372686	        467.12562107	        -16.81972200	         -0.80816553	          0.00000000	          0.02556267	          0.00000000	          0.00000000	          0.00000000	          0.00000000	          0.00000000	          0.00000000	          0.00000000	          2.02012030	          0.00000000	          0.00000000	          0.00000000	          0.00000000	
          0.56400000	         33.82280768	        469.82967110	        -16.63408316	         -0.80698746	          0.00000000	          0.02577119	          0.00000000	          0.00000000	          0.00000000	          0.00000000	          0.00000000	          0.00000000	          0.00000000	          2.07547469	          0.00000000	          0.00000000	          0.00000000	          0.00000000	
          0.56800000	         35.80893232	        473.03692744	        -16.43974235	         -0.80567516	          0.00000000	          0.02598282	          0.00000000	          0.00000000	          0.00000000	          0.00000000	          0.00000000	          0.00000000	          0.00000000	          2.13443651	          0.00000000	          0.00000000	          0.00000000	          0.00000000	
          0.57200000	         37.49967907	        476.69529894	        -16.44182113	         -0.80422534	          0.00000000	          0.02621383	          0.00000000	          0.00000000	          0.00000000	          0.00000000	          0.00000000	          0.00000000	          0.00000000	          2.18466177	          0.00000000	          0.00000000	          0.00000000	          0.00000000	
          0.57600000	         38.95780217	        480.73455866	        -16.81803914	         -0.80264888	          0.00000000	          0.02647523	          0.00000000	          0.00000000	          0.00000000	          0.00000000	          0.00000000	          0.00000000	          0.00000000	          2.21446724	          0.00000000	          0.00000000	          0.00000000	          0.00000000	
          0.58000000	         40.29952083	        485.08735172	        -17.67563665	         -0.80096287	          0.00000000	          0.02676771	          0.00000000	          0.00000000	          0.00000000	          0.00000000	          0.00000000	          0.00000000	          0.00000000	          2.21563515	          0.00000000	          0.00000000	          0.00000000	          0.00000000	
          0.58400000	         41.64914437	        489.70579651	        -19.02791165	         -0.79918216	          0.00000000	          0.02708390	          0.00000000	          0.00000000	          0.00000000	          0.00000000	          0.00000000	          0.00000000	          0.00000000	          2.18565005	          0.00000000	          0.00000000	          0.00000000	          0.00000000	
          0.58800000	         43.09378603	        494.56573759	        -20.79258192	         -0.79731861	          0.00000000	          0.02741400	          0.00000000	          0.00000000	          0.00000000	          0.00000000	          0.00000000	          0.00000000	          0.00000000	          2.12880919	          0.00000000	          0.00000000	          0.00000000	          0.00000000	
          0.59200000	         44.65374601	        499.67019479	        -22.80971705	         -0.79537916	          0.00000000	          0.02774640	          0.00000000	          0.00000000	          0.00000000	          0.00000000	          0.00000000	          0.00000000	          0.00000000	          2.05578930	          0.00000000	          0.00000000	          0.00000000	          0.00000000	
          0.59600000	         46.27875572	        505.05829063	        -24.87518362	         -0.79336516	          0.00000000	          0.02807031	          0.00000000	          0.00000000	          0.00000000	          0.00000000	          0.00000000	          0.00000000	          0.00000000	          1.98160947	          0.00000000	          0.00000000	          0.00000000	          0.00000000	
          0.60000000	         47.86939314	        510.79771169	        -26.78181616	         -0.79127156	          0.00000000	          0.02837673	          0.00000000	          0.00000000	          0.00000000	          0.00000000	          0.00000000	          0.00000000	          0.00000000	          1.92238611	          0.00000000	          0.00000000	          0.00000000	          0.00000000	
          0.60400000	         49.31313053	        516.95617312	        -28.36061235	         -0.78910032	          0.00000000	          0.02865812	          0.00000000	          0.00000000	          0.00000000	          0.00000000	          0.00000000	          0.00000000	          0.00000000	          1.89165742	          0.00000000	          0.00000000	          0.00000000	          0.00000000	
          0.60800000	         50.52067798	        523.58043358	        -29.51645946	         -0.78686250	          0.00000000	          0.02891188	          0.00000000	          0.00000000	          0.00000000	          0.00000000	          0.00000000	          0.00000000	          0.00000000	          1.89722626	          0.00000000	          0.00000000	          0.00000000	          0.00000000	
          0.61200000	         51.45239154	        530.69696612	        -30.24912938	         -0.78455438	          0.00000000	          0.02913612	          0.00000000	          0.00000000	          0.00000000	          0.00000000	          0.00000000	          0.00000000	          0.00000000	          1.93933305	          0.00000000	          0.00000000	          0.00000000	          0.00000000	
          0.61600000	         52.12963260	        538.31946334	        -30.65106324	         -0.78216702	          0.00000000	          0.02932904	          0.00000000	          0.00000000	          0.00000000	          0.00000000	          0.00000000	          0.00000000	          0.00000000	          2.01055885	          0.00000000	          0.00000000	          0.00000000	          0.00000000	
          0.62000000	         52.62800332	        546.44713946	        -30.88223695	         -0.77969550	          0.00000000	          0.02949041	          0.00000000	          0.00000000	          0.00000000	          0.00000000	          0.00000000	          0.00000000	          0.00000000	          2.09739766	          0.00000000	          0.00000000	          0.00000000	          0.00000000	
          0.62400000	         53.05404552	        555.05754146	        -31.12921937	         -0.77714739	          0.00000000	          0.02962424	          0.00000000	          0.00000000	          0.00000000	          0.00000000	          0.00000000	          0.00000000	          0.00000000	          2.18311614	          0.00000000	          0.00000000	          0.00000000	          0.00000000	
          0.62800000	         53.51326573	        564.10827615	        -31.55888215	         -0.77453303	          0.00000000	          0.02973704	          0.00000000	          0.00000000	          0.00000000	          0.00000000	          0.00000000	          0.00000000	          0.00000000	          2.25133628	          0.00000000	          0.00000000	          0.00000000	          0.00000000	
          0.63200000	         54.08145710	        573.54540611	        -32.27824705	         -0.77186500	          0.00000000	          0.02983168	          0.00000000	          0.00000000	          0.00000000	          0.00000000	          0.00000000	          0.00000000	          0.00000000	          2.28965573	          0.00000000	          0.00000000	          0.00000000	          0.00000000	
          0.63600000	         54.79009818	        583.30665033	        -33.31087616	         -0.76916169	          0.00000000	          0.02990759	          0.00000000	          0.00000000	          0.00000000	          0.00000000	          0.00000000	          0.00000000	          0.00000000	          2.29254820	          0.00000000	          0.00000000	          0.00000000	          0.00000000	
          0.64000000	         55.62933519	        593.32424622	        -34.59374084	         -0.76644296	          0.00000000	          0.02996190	          0.00000000	          0.00000000	          0.00000000	          0.00000000	          0.00000000	          0.00000000	          0.00000000	          2.26283048	          0.00000000	          0.00000000	          0.00000000	          0.00000000	
